# xmcd
#
# Track frame offsets: 
#        150
#        37863
#        56848
#        77204
#        98141
#        117987
#        137592
#        161463
#        188669
#        205938
#        235741
#        260803
#
# Disc length: 3741 seconds
#
# Revision: 0
# Processed by: cddbd v1.5.2PL0 Copyright (c) Steve Scherf et al.
# Submitted via: ExactAudioCopy v1.0b1
#
DISCID=9f0e9b0c
DTITLE=Jesse Sykes and The Sweet Hereafter - Marble Son (Japanese Editio
DTITLE=n)
DYEAR=2011
DGENRE=Folk/Rock
TTITLE0=Hushed By Devotion
TTITLE1=Marble Son
TTITLE2=Come To Mary
TTITLE3=Servant Of Your Vision
TTITLE4=Ceilings High
TTITLE5=Be It Me, Or Be It Done
TTITLE6=Pleasuring The Divine
TTITLE7=Weight Of Cancer
TTITLE8=Birds Of Passerine
TTITLE9=Your Own Kind
TTITLE10=Wooden Roses
TTITLE11=Transformation Song*
EXTD=
EXTT0=
EXTT1=
EXTT2=
EXTT3=
EXTT4=
EXTT5=
EXTT6=
EXTT7=
EXTT8=
EXTT9=
EXTT10=
EXTT11=
PLAYORDER=
